<?xml version="1.0" encoding="UTF-8"?>
<svg width="84px" height="15px" viewBox="0 0 84 15" version="1.1" xmlns="http://www.w3.org/2000/svg" xmlns:xlink="http://www.w3.org/1999/xlink">
    <!-- Generator: Sketch 49.3 (51167) - http://www.bohemiancoding.com/sketch -->
    <title>Logo</title>
    <desc>Created with Sketch.</desc>
    <defs></defs>
    <g id="Assets" stroke="none" stroke-width="1" fill="none" fill-rule="evenodd">
        <g id="Logo" fill="#000000">
            <path d="M5.696,14.162 C3.85999082,14.162 2.46500477,13.6940047 1.511,12.758 C0.55699523,11.8219953 0.08,10.454009 0.08,8.654 L0.08,1.31 L3.32,1.31 L3.32,8.78 C3.32,9.69200456 3.52399796,10.3939975 3.932,10.886 C4.34000204,11.3780025 4.92799616,11.624 5.696,11.624 C6.46400384,11.624 7.05199796,11.3780025 7.46,10.886 C7.86800204,10.3939975 8.072,9.69200456 8.072,8.78 L8.072,1.31 L11.33,1.31 L11.33,8.654 C11.33,10.4420089 10.8470048,11.8069953 9.881,12.749 C8.91499517,13.6910047 7.52000912,14.162 5.696,14.162 Z M22.168,7.538 L20.422,7.718 C19.7259965,7.79000036 19.2400014,7.9759985 18.964,8.276 C18.6879986,8.5760015 18.55,9.00199724 18.55,9.554 L18.55,14 L15.346,14 L15.346,5.144 L18.388,5.144 L18.388,6.674 C18.592001,6.1339973 18.9279977,5.72300141 19.396,5.441 C19.8640023,5.15899859 20.4339966,5.00000018 21.106,4.964 L21.988,4.892 L22.168,7.538 Z M28.956,4.928 C30.348007,4.928 31.3769967,5.24899679 32.043,5.891 C32.7090033,6.53300321 33.042,7.53199322 33.042,8.888 L33.042,14 L30.036,14 L30.036,12.758 C29.8679992,13.1900022 29.586002,13.5289988 29.19,13.775 C28.793998,14.0210012 28.3200028,14.144 27.768,14.144 C27.1559969,14.144 26.6040025,14.0210012 26.112,13.775 C25.6199975,13.5289988 25.2330014,13.1870022 24.951,12.749 C24.6689986,12.3109978 24.528,11.8160028 24.528,11.264 C24.528,10.6279968 24.6929984,10.1210019 25.023,9.743 C25.3530017,9.36499811 25.8779964,9.09200084 26.598,8.924 C27.3180036,8.75599916 28.2899939,8.672 29.514,8.672 L30,8.672 L30,8.456 C30,8.01199778 29.898001,7.70300087 29.694,7.529 C29.489999,7.35499913 29.1300026,7.268 28.614,7.268 C28.205998,7.268 27.7350027,7.34899919 27.201,7.511 C26.6669973,7.67300081 26.1660023,7.87999874 25.698,8.132 L24.888,6.026 C25.4040026,5.71399844 26.0489961,5.45300105 26.823,5.243 C27.5970039,5.03299895 28.3079968,4.928 28.956,4.928 Z M28.524,12.002 C28.9560022,12.002 29.3099986,11.8490015 29.586,11.543 C29.8620014,11.2369985 30,10.8440024 30,10.364 L30,10.148 L29.712,10.148 C28.9439962,10.148 28.3980016,10.2169993 28.074,10.355 C27.7499984,10.4930007 27.588,10.7239984 27.588,11.048 C27.588,11.3240014 27.6749991,11.5519991 27.849,11.732 C28.0230009,11.9120009 28.2479986,12.002 28.524,12.002 Z M42.8,4.928 C43.8560053,4.928 44.6419974,5.24299685 45.158,5.873 C45.6740026,6.50300315 45.932,7.45999358 45.932,8.744 L45.932,14 L42.728,14 L42.728,8.888 C42.728,8.35999736 42.6350009,7.9760012 42.449,7.736 C42.2629991,7.4959988 41.9840019,7.376 41.612,7.376 C41.1319976,7.376 40.7510014,7.52899847 40.469,7.835 C40.1869986,8.14100153 40.046,8.55199742 40.046,9.068 L40.046,14 L36.842,14 L36.842,5.144 L39.956,5.144 L39.956,6.332 C40.2680016,5.87599772 40.6699975,5.5280012 41.162,5.288 C41.6540025,5.0479988 42.199997,4.928 42.8,4.928 Z M49.732,14 L49.732,5.144 L52.936,5.144 L52.936,14 L49.732,14 Z M49.66,0.716 L53.008,0.716 L53.008,3.614 L49.66,3.614 L49.66,0.716 Z M65.718,5.144 L65.718,14 L62.604,14 L62.604,12.812 C62.3279986,13.2440022 61.9770021,13.5739989 61.551,13.802 C61.1249979,14.0300011 60.6360028,14.144 60.084,14.144 C58.9439943,14.144 58.0980028,13.8290032 57.546,13.199 C56.9939972,12.5689968 56.718,11.6120064 56.718,10.328 L56.718,5.144 L59.922,5.144 L59.922,10.4 C59.922,11.2640043 60.2939963,11.696 61.038,11.696 C61.4700022,11.696 61.8239986,11.5400016 62.1,11.228 C62.3760014,10.9159984 62.514,10.5080025 62.514,10.004 L62.514,5.144 L65.718,5.144 Z M80.894,4.928 C81.9260052,4.928 82.6909975,5.23999688 83.189,5.864 C83.6870025,6.48800312 83.936,7.44799352 83.936,8.744 L83.936,14 L80.732,14 L80.732,8.834 C80.732,8.31799742 80.6540008,7.94600114 80.498,7.718 C80.3419992,7.48999886 80.0840018,7.376 79.724,7.376 C79.2799978,7.376 78.9410012,7.53199844 78.707,7.844 C78.4729988,8.15600156 78.356,8.59999712 78.356,9.176 L78.356,14 L75.152,14 L75.152,8.834 C75.152,8.31799742 75.0740008,7.94600114 74.918,7.718 C74.7619992,7.48999886 74.5040018,7.376 74.144,7.376 C73.6999978,7.376 73.3640011,7.53199844 73.136,7.844 C72.9079989,8.15600156 72.794,8.59999712 72.794,9.176 L72.794,14 L69.59,14 L69.59,5.144 L72.704,5.144 L72.704,6.26 C73.2920029,5.37199556 74.1919939,4.928 75.404,4.928 C76.6760064,4.928 77.5339978,5.44999478 77.978,6.494 C78.2900016,6.00199754 78.7009975,5.61800138 79.211,5.342 C79.7210026,5.06599862 80.2819969,4.928 80.894,4.928 Z"></path>
        </g>
    </g>
</svg>